<svg width="17" height="17" viewBox="0 0 17 17" fill="none" xmlns="http://www.w3.org/2000/svg">
<path d="M4.20996 11.7784C4.20996 12.5369 4.82485 13.1518 5.58335 13.1518C6.34185 13.1518 6.95674 12.5369 6.95674 11.7784V4.92173C6.95674 4.16323 6.34185 3.54834 5.58335 3.54834C4.82485 3.54834 4.20996 4.16323 4.20996 4.92173V11.7784ZM11.0769 3.54834C10.3184 3.54834 9.70352 4.16323 9.70352 4.92173V11.7784C9.70352 12.5369 10.3184 13.1518 11.0769 13.1518C11.8354 13.1518 12.4503 12.5369 12.4503 11.7784V4.92173C12.4503 4.16323 11.8354 3.54834 11.0769 3.54834Z" fill="#E3E8ED"/>
<path d="M0.0898438 2.86396C0.0898438 1.34777 1.31896 0.118652 2.83515 0.118652H13.8252C15.3414 0.118652 16.5705 1.34777 16.5705 2.86396V13.8363C16.5705 15.3525 15.3414 16.5816 13.8252 16.5816H2.83515C1.31896 16.5816 0.0898438 15.3525 0.0898438 13.8363V2.86396Z" fill="#E3E8ED"/>
</svg>
