<svg width="15" height="15" viewBox="0 0 15 15" fill="none" xmlns="http://www.w3.org/2000/svg">
<path d="M0.964844 3.23578C0.964844 1.71959 2.19396 0.490479 3.71015 0.490479H11.9534C13.4696 0.490479 14.6987 1.71959 14.6987 3.23579V11.4643C14.6987 12.9805 13.4696 14.2096 11.9534 14.2096H3.71015C2.19396 14.2096 0.964844 12.9805 0.964844 11.4643V3.23578Z" fill="#E3E8ED"/>
<path d="M12.982 2.20532H2.6816C2.05213 2.20532 1.53711 2.71979 1.53711 3.34859V11.3514C1.53711 11.9802 2.05213 12.4947 2.6816 12.4947H12.982C13.6115 12.4947 14.1265 11.9802 14.1265 11.3514V3.34859C14.1265 2.71979 13.6115 2.20532 12.982 2.20532ZM12.982 6.89123C12.982 8.40742 11.7529 9.63654 10.2367 9.63654H5.42691C3.91072 9.63654 2.6816 8.40742 2.6816 6.89123V6.09389C2.6816 4.5777 3.91072 3.34859 5.42691 3.34859H10.2367C11.7529 3.34859 12.982 4.5777 12.982 6.09389V6.89123Z" fill="#E3E8ED"/>
</svg>
