<svg width="24" height="30" viewBox="0 0 24 30" fill="none" xmlns="http://www.w3.org/2000/svg">
<path fill-rule="evenodd" clip-rule="evenodd" d="M17.9493 0.5625C16.503 0.623535 14.7491 1.52832 13.712 2.74463C12.7794 3.8252 11.9649 5.54932 12.1847 7.20264C13.7999 7.32959 15.4454 6.38135 16.4513 5.16406C17.4552 3.94482 18.1339 2.25244 17.9493 0.5625ZM17.5401 29.3354C19.5001 29.2988 20.7413 27.5532 21.9415 25.7969C23.2579 23.8716 23.839 22.0049 23.9249 21.729L23.9347 21.6982L23.9278 21.6953C23.7462 21.6216 20.1104 20.1455 20.0743 15.8721C20.0372 12.2241 23.045 10.4727 23.1788 10.3848C21.4884 7.91016 18.8565 7.5708 17.919 7.53223C16.5489 7.39355 15.2198 7.91797 14.1339 8.34619C13.4444 8.61816 12.8526 8.85156 12.4112 8.85156C11.919 8.85156 11.3116 8.60986 10.629 8.33838C9.73641 7.9834 8.71591 7.57812 7.6622 7.59766C5.22177 7.63428 2.96981 9.01953 1.71298 11.2095C-0.825109 15.6187 1.06259 22.1519 3.53427 25.7266C4.74423 27.4751 6.18368 29.4429 8.07626 29.3721C8.92098 29.3379 9.52255 29.0815 10.1436 28.8164C10.8624 28.5098 11.6095 28.1919 12.7911 28.1919C13.9161 28.1919 14.628 28.5 15.3126 28.7969C15.9669 29.0806 16.5968 29.3535 17.5401 29.3354Z" fill="white"/>
</svg>
